<svg width="164" height="58" viewBox="0 0 164 58" fill="none" xmlns="http://www.w3.org/2000/svg">
    <path d="M9.58993 49.7304H27.5257V56.75H0.88916V3.7215H9.58993V49.7304Z" fill="#2D5BD0"/>
    <path d="M31.9018 35.5386C31.9018 31.3167 32.7668 27.578 34.4967 24.3225C36.2776 21.067 38.669 18.5491 41.6711 16.7688C44.724 14.9376 48.0822 14.022 51.7456 14.022C55.0529 14.022 57.9278 14.6833 60.3701 16.0058C62.8633 17.2775 64.8477 18.8798 66.3233 20.8127V14.7087H75.1003V56.75H66.3233V50.4934C64.8477 52.4772 62.8379 54.1304 60.2938 55.4529C57.7497 56.7754 54.8494 57.4367 51.593 57.4367C47.9804 57.4367 44.6731 56.5211 41.6711 54.6899C38.669 52.8078 36.2776 50.2136 34.4967 46.9073C32.7668 43.5501 31.9018 39.7605 31.9018 35.5386ZM66.3233 35.6912C66.3233 32.7918 65.7127 30.2739 64.4915 28.1375C63.3212 26.0011 61.7693 24.3734 59.8358 23.2543C57.9023 22.1352 55.8162 21.5757 53.5774 21.5757C51.3386 21.5757 49.2524 22.1352 47.3189 23.2543C45.3854 24.3225 43.8081 25.9248 42.5869 28.0612C41.4166 30.1467 40.8315 32.6392 40.8315 35.5386C40.8315 38.438 41.4166 40.9813 42.5869 43.1686C43.8081 45.3559 45.3854 47.0345 47.3189 48.2044C49.3033 49.3235 51.3895 49.883 53.5774 49.883C55.8162 49.883 57.9023 49.3235 59.8358 48.2044C61.7693 47.0853 63.3212 45.4576 64.4915 43.3212C65.7127 41.1339 66.3233 38.5906 66.3233 35.6912Z" fill="#2D5BD0"/>
    <path d="M101.793 57.4367C98.4857 57.4367 95.5091 56.8517 92.8632 55.6818C90.2683 54.461 88.2076 52.8333 86.6811 50.7986C85.1547 48.7131 84.3405 46.3986 84.2388 43.8553H93.2449C93.3975 45.6356 94.237 47.1362 95.7635 48.357C97.3408 49.5269 99.2998 50.1119 101.64 50.1119C104.083 50.1119 105.965 49.6541 107.288 48.7385C108.662 47.772 109.349 46.5512 109.349 45.0761C109.349 43.4992 108.586 42.3293 107.059 41.5663C105.584 40.8033 103.218 39.964 99.9612 39.0484C96.8066 38.1837 94.2371 37.3444 92.2527 36.5305C90.2683 35.7166 88.5383 34.4704 87.0627 32.7918C85.638 31.1132 84.9257 28.9005 84.9257 26.1537C84.9257 23.9156 85.5872 21.8809 86.9101 20.0497C88.233 18.1676 90.1156 16.6925 92.558 15.6243C95.0512 14.5561 97.9005 14.022 101.106 14.022C105.889 14.022 109.731 15.2428 112.631 17.6844C115.582 20.0751 117.159 23.356 117.363 27.5271H108.662C108.509 25.645 107.746 24.1445 106.372 23.0254C104.999 21.9063 103.141 21.3468 100.801 21.3468C98.5111 21.3468 96.7557 21.7792 95.5345 22.6439C94.3134 23.5086 93.7028 24.6531 93.7028 26.0774C93.7028 27.1965 94.1098 28.1375 94.924 28.9005C95.7381 29.6635 96.7303 30.2739 97.9005 30.7317C99.0708 31.1386 100.801 31.6727 103.09 32.334C106.143 33.1479 108.637 33.9872 110.57 34.8519C112.554 35.6658 114.259 36.8866 115.684 38.5143C117.108 40.142 117.846 42.3039 117.897 44.9998C117.897 47.3905 117.236 49.5269 115.913 51.409C114.59 53.2911 112.707 54.7662 110.265 55.8344C107.873 56.9026 105.049 57.4367 101.793 57.4367Z" fill="#2D5BD0"/>
    <path d="M143.937 35.7675L163.323 56.75H151.569L135.999 38.6669V56.75H127.298V0.288002H135.999V33.097L151.264 14.7087H163.323L143.937 35.7675Z" fill="#2D5BD0"/>
</svg>
